<svg width="512" height="512" viewBox="0 0 512 512" fill="none" xmlns="http://www.w3.org/2000/svg">
<path d="M260 422L82 301V327L260 447.5V422Z" fill="#7BA058"/>
<path d="M383 311L260 422V447.5L383 336.5V311Z" fill="#7BA058"/>
<path d="M391 141L383 311L401.5 296.5L409 126L391 141Z" fill="#7BA058"/>
<path d="M203 70L391 141L409 126L225 58.5L203 70Z" fill="#7BA058"/>
<path d="M383 311V336.5L260 447.5L82 327V301L203 221M383 311L401.5 296.5L409 126L225 58.5L203 70V221M203 221L383 311M82 301L260 422M260 422L383 311M260 422V447.5M383 311L391 141M391 141L203 70M391 141L409 126" stroke="#7BA058" stroke-width="11"/>
<path d="M223.5 205.5V100L369 156L362.5 274L223.5 205.5Z" fill="#7BA058" fill-opacity="0.34" stroke="#7BA058" stroke-width="11"/>
<path d="M171.5 267L153.5 316L318 319.5L312.5 311L298 279.5L290 247.5L286.5 215.5V179L175 182L180 220.5L171.5 267Z" fill="url(#paint0_linear_1_13)"/>
<path d="M230.5 131C247.091 131 262.356 134.849 273.647 141.329C284.801 147.73 293 157.33 293 169C293 180.67 284.801 190.27 273.647 196.671C262.356 203.151 247.091 207 230.5 207C213.909 207 198.644 203.151 187.353 196.671C176.199 190.27 168 180.67 168 169C168 157.33 176.199 147.73 187.353 141.329C198.644 134.849 213.909 131 230.5 131Z" fill="white" stroke="white" stroke-width="10"/>
<path d="M232.125 125.512C248.885 125.754 264.503 129.739 276.386 136.559C288.35 143.425 298.5 154.507 298.5 169C298.5 170.898 298.319 172.752 297.98 174.556C297.752 177.083 297.474 180.655 297.253 185.057C296.784 194.401 296.572 207.405 297.599 222.014C299.679 251.624 306.735 286.116 325.363 310.65L328.387 314.633L324.404 317.656L315.643 324.309L311.66 327.332L308.637 323.35C286.265 293.884 278.821 254.376 276.651 223.486C276.105 215.709 275.887 208.369 275.866 201.731C263.663 208.589 247.631 212.5 230.5 212.5C214.735 212.5 199.899 209.19 188.123 203.318C188.791 212.822 188.745 222.173 187.618 232.418C185.182 254.566 177.775 280.283 162.848 320.643L161.113 325.332L156.424 323.598L146.107 319.781L141.418 318.047L143.152 313.357C157.985 273.256 164.607 249.563 166.745 230.122C168.653 212.777 167.05 198.349 163.749 177.585C162.938 174.851 162.5 171.981 162.5 169C162.5 154.507 172.65 143.425 184.614 136.559C196.88 129.519 213.126 125.5 230.5 125.5L232.125 125.512ZM230.5 146.5C216.118 146.5 203.614 149.868 195.068 154.772C186.756 159.543 183.831 164.639 183.53 168.343C183.758 169.739 183.98 171.112 184.197 172.463C185.481 175.717 188.745 179.599 195.068 183.228C203.614 188.132 216.118 191.5 230.5 191.5C244.882 191.5 257.386 188.132 265.932 183.228C273.092 179.118 276.296 174.713 277.201 171.235C277.294 170.276 277.374 169.496 277.439 168.91C277.454 168.777 277.469 168.654 277.481 168.541C277.269 164.818 274.393 159.629 265.932 154.772C257.386 149.868 244.882 146.5 230.5 146.5Z" fill="#7BA058" stroke="white" stroke-width="10"/>
<path d="M228.793 226.029C231.438 221.86 238 223.697 238 228.732V240H244.215C248.121 240 250.519 244.279 248.479 247.61L236.265 267.562C233.629 271.867 227 269.999 227 264.951V253.249H221.732C217.883 253.249 215.478 249.082 217.402 245.749L228.67 226.232L228.793 226.029Z" fill="#7BA058" stroke="white" stroke-width="8"/>
<defs>
<linearGradient id="paint0_linear_1_13" x1="235.75" y1="179" x2="235.75" y2="319.5" gradientUnits="userSpaceOnUse">
<stop stop-color="#7BA058"/>
<stop offset="1" stop-color="white"/>
</linearGradient>
</defs>
</svg>
