<svg width="1799" height="512" viewBox="0 0 1799 512" fill="none" xmlns="http://www.w3.org/2000/svg">
<rect width="1799" height="512" fill="white"/>
<rect width="512" height="512" fill="white"/>
<path d="M260 422L82 301V327L260 447.5V422Z" fill="#7BA058"/>
<path d="M383 311L260 422V447.5L383 336.5V311Z" fill="#7BA058"/>
<path d="M391 141L383 311L401.5 296.5L409 126L391 141Z" fill="#7BA058"/>
<path d="M203 70L391 141L409 126L225 58.5L203 70Z" fill="#7BA058"/>
<path d="M383 311V336.5L260 447.5L82 327V301L203 221M383 311L401.5 296.5L409 126L225 58.5L203 70V221M203 221L383 311M82 301L260 422M260 422L383 311M260 422V447.5M383 311L391 141M391 141L203 70M391 141L409 126" stroke="#7BA058" stroke-width="11"/>
<path d="M223.5 205.5V100L369 156L362.5 274L223.5 205.5Z" fill="#7BA058" fill-opacity="0.34" stroke="#7BA058" stroke-width="11"/>
<path d="M171.5 267L153.5 316L318 319.5L312.5 311L298 279.5L290 247.5L286.5 215.5V179L175 182L180 220.5L171.5 267Z" fill="url(#paint0_linear_1_12)"/>
<path d="M230.5 131C247.091 131 262.356 134.849 273.647 141.329C284.801 147.73 293 157.33 293 169C293 170.647 292.836 172.254 292.524 173.815C292.286 176.421 291.992 180.156 291.76 184.781C291.283 194.289 291.067 207.52 292.112 222.399C294.216 252.345 301.374 288.151 320.982 313.977L313.018 320.023C291.626 291.849 284.284 253.655 282.138 223.101C281.292 211.063 281.246 200.084 281.502 191.179C279.132 193.204 276.486 195.042 273.647 196.671C262.356 203.151 247.091 207 230.5 207C213.909 207 198.644 203.151 187.353 196.671C185.324 195.507 183.394 194.235 181.593 192.866C183.172 206.114 183.654 218.15 182.151 231.816C179.793 253.256 172.592 278.443 157.689 318.734L148.311 315.266C163.168 275.097 169.996 250.874 172.212 230.724C174.215 212.513 172.48 197.414 169.123 176.353C168.393 174.009 168 171.554 168 169C168 157.33 176.199 147.73 187.353 141.329C198.644 134.849 213.909 131 230.5 131Z" fill="white" stroke="white" stroke-width="10"/>
<path d="M232.125 125.512C248.885 125.754 264.503 129.739 276.386 136.559C288.35 143.425 298.5 154.507 298.5 169C298.5 170.898 298.319 172.752 297.98 174.556C297.752 177.083 297.474 180.655 297.253 185.057C296.784 194.401 296.572 207.405 297.599 222.014C299.679 251.624 306.735 286.116 325.363 310.65L328.387 314.633L324.404 317.656L315.643 324.309L311.66 327.332L308.637 323.35C286.265 293.884 278.821 254.376 276.651 223.486C276.105 215.709 275.887 208.369 275.866 201.731C264.05 208.371 248.643 212.249 232.125 212.488L230.5 212.5C214.735 212.5 199.899 209.19 188.123 203.318C188.791 212.822 188.745 222.173 187.618 232.418C185.182 254.566 177.775 280.283 162.848 320.643L161.113 325.332L156.424 323.598L146.107 319.781L141.418 318.047L143.152 313.357C157.985 273.256 164.607 249.563 166.745 230.122C168.653 212.777 167.05 198.349 163.749 177.585C162.938 174.851 162.5 171.981 162.5 169C162.5 154.507 172.65 143.425 184.614 136.559C196.88 129.519 213.126 125.5 230.5 125.5L232.125 125.512ZM230.5 146.5C216.118 146.5 203.614 149.868 195.068 154.772C186.756 159.543 183.831 164.639 183.53 168.343C183.758 169.739 183.98 171.112 184.197 172.463C185.481 175.717 188.745 179.599 195.068 183.228C203.614 188.132 216.118 191.5 230.5 191.5L231.843 191.49C245.659 191.288 257.653 187.979 265.932 183.228C273.092 179.118 276.296 174.713 277.201 171.235C277.294 170.276 277.374 169.496 277.439 168.91C277.454 168.777 277.469 168.653 277.481 168.54C277.269 164.817 274.392 159.628 265.932 154.772C257.386 149.868 244.882 146.5 230.5 146.5Z" fill="#7BA058" stroke="white" stroke-width="10"/>
<path d="M228.793 226.029C231.438 221.86 238 223.697 238 228.732V240H244.215C248.121 240 250.519 244.279 248.479 247.61L236.265 267.562C233.629 271.867 227 269.999 227 264.951V253.249H221.732C217.883 253.249 215.478 249.082 217.402 245.749L228.67 226.232L228.793 226.029Z" fill="#7BA058" stroke="white" stroke-width="8"/>
<path d="M588.4 174H617.4V314H588.4V174ZM599.4 242.8H636.8V268H599.4V242.8ZM636.8 242.8C643.2 242.8 648.667 242.267 653.2 241.2C657.867 240 661.4 237.867 663.8 234.8C666.333 231.6 667.6 227 667.6 221C667.6 215 666.333 210.467 663.8 207.4C661.4 204.2 657.867 202.067 653.2 201C648.667 199.8 643.2 199.2 636.8 199.2V174C648.933 174 659.533 175.533 668.6 178.6C677.8 181.667 684.933 186.667 690 193.6C695.2 200.4 697.8 209.533 697.8 221C697.8 232.333 695.2 241.467 690 248.4C684.933 255.333 677.8 260.333 668.6 263.4C659.533 266.467 648.933 268 636.8 268V242.8ZM599.4 174H636.8V199.2H599.4V174ZM764.028 317.2C752.561 317.2 742.495 314.733 733.828 309.8C725.295 304.733 718.628 297.733 713.828 288.8C709.161 279.867 706.828 269.667 706.828 258.2C706.828 246.6 709.161 236.333 713.828 227.4C718.628 218.467 725.295 211.467 733.828 206.4C742.495 201.333 752.561 198.8 764.028 198.8C775.628 198.8 785.695 201.333 794.228 206.4C802.761 211.467 809.361 218.467 814.028 227.4C818.828 236.333 821.228 246.6 821.228 258.2C821.228 269.667 818.828 279.867 814.028 288.8C809.361 297.733 802.761 304.733 794.228 309.8C785.695 314.733 775.628 317.2 764.028 317.2ZM764.028 291.6C770.561 291.6 775.828 290.133 779.828 287.2C783.961 284.133 787.028 280.067 789.028 275C791.028 269.933 792.028 264.333 792.028 258.2C792.028 251.933 791.028 246.267 789.028 241.2C787.028 236 783.961 231.933 779.828 229C775.828 225.933 770.561 224.4 764.028 224.4C757.628 224.4 752.361 225.933 748.228 229C744.095 231.933 741.028 236 739.028 241.2C737.028 246.267 736.028 251.933 736.028 258.2C736.028 264.333 737.028 269.933 739.028 275C741.028 280.067 744.095 284.133 748.228 287.2C752.361 290.133 757.628 291.6 764.028 291.6ZM826.913 202H857.513L877.513 314H852.913L826.913 202ZM915.513 202L891.513 314H864.913L888.913 202H915.513ZM893.313 202H919.913L943.913 314H917.313L893.313 202ZM981.913 202L955.913 314H931.313L951.313 202H981.913ZM1044.69 317.2C1033.23 317.2 1023.16 314.733 1014.49 309.8C1005.96 304.733 999.292 297.733 994.492 288.8C989.826 279.867 987.492 269.667 987.492 258.2C987.492 246.6 989.826 236.333 994.492 227.4C999.292 218.467 1005.96 211.467 1014.49 206.4C1023.16 201.333 1033.23 198.8 1044.69 198.8C1052.29 198.8 1059.49 200.333 1066.29 203.4C1073.09 206.467 1078.96 210.933 1083.89 216.8C1088.83 222.667 1092.43 229.867 1094.69 238.4C1096.96 246.933 1097.29 256.667 1095.69 267.6H1003.69V244.4H1076.29L1067.09 249.8C1067.76 245.933 1067.36 242.067 1065.89 238.2C1064.56 234.2 1062.16 230.933 1058.69 228.4C1055.23 225.733 1050.56 224.4 1044.69 224.4C1037.89 224.4 1032.43 225.933 1028.29 229C1024.16 231.933 1021.16 236 1019.29 241.2C1017.56 246.267 1016.69 251.933 1016.69 258.2C1016.69 264.333 1017.56 269.933 1019.29 275C1021.16 280.067 1024.16 284.133 1028.29 287.2C1032.43 290.133 1037.89 291.6 1044.69 291.6C1050.16 291.6 1054.69 290.333 1058.29 287.8C1061.89 285.267 1064.43 282.133 1065.89 278.4H1096.09C1094.49 286.133 1091.36 292.933 1086.69 298.8C1082.03 304.533 1076.09 309.067 1068.89 312.4C1061.83 315.6 1053.76 317.2 1044.69 317.2ZM1111.22 202H1139.82V314H1111.22V202ZM1139.82 259.2L1136.82 238.6C1136.82 235.133 1137.16 231.133 1137.82 226.6C1138.49 222.067 1140.02 217.733 1142.42 213.6C1144.96 209.333 1148.82 205.8 1154.02 203C1159.22 200.2 1166.29 198.8 1175.22 198.8V226.8C1167.36 226.8 1160.76 227.667 1155.42 229.4C1150.22 231.133 1146.29 234.333 1143.62 239C1141.09 243.533 1139.82 250.267 1139.82 259.2ZM1249.37 317.2C1241.64 317.2 1235.17 315.867 1229.97 313.2C1224.77 310.4 1220.57 306.6 1217.37 301.8V214.6C1220.84 209.533 1225.17 205.667 1230.37 203C1235.57 200.2 1241.91 198.8 1249.37 198.8C1260.04 198.8 1269.11 201.333 1276.57 206.4C1284.04 211.467 1289.77 218.467 1293.77 227.4C1297.77 236.333 1299.77 246.6 1299.77 258.2C1299.77 269.667 1297.77 279.867 1293.77 288.8C1289.77 297.733 1284.04 304.733 1276.57 309.8C1269.11 314.733 1260.04 317.2 1249.37 317.2ZM1188.77 354V202H1217.37V354H1188.77ZM1244.37 291.6C1250.24 291.6 1255.11 290.133 1258.97 287.2C1262.84 284.133 1265.71 280.067 1267.57 275C1269.57 269.933 1270.57 264.333 1270.57 258.2C1270.57 251.933 1269.57 246.267 1267.57 241.2C1265.71 236 1262.84 231.933 1258.97 229C1255.11 225.933 1250.24 224.4 1244.37 224.4C1238.24 224.4 1233.17 225.933 1229.17 229C1225.17 231.933 1222.17 236 1220.17 241.2C1218.31 246.267 1217.37 251.933 1217.37 258.2C1217.37 264.333 1218.31 269.933 1220.17 275C1222.17 280.067 1225.17 284.133 1229.17 287.2C1233.17 290.133 1238.24 291.6 1244.37 291.6ZM1314.36 164H1342.96V314H1314.36V164ZM1431.39 250H1459.99V314H1431.39V250ZM1411.59 198.8C1427.45 198.8 1439.45 203.4 1447.59 212.6C1455.85 221.8 1459.99 234.267 1459.99 250H1431.39C1431.39 245.2 1430.92 240.867 1429.99 237C1429.05 233 1427.12 229.8 1424.19 227.4C1421.39 225 1417.19 223.8 1411.59 223.8C1404.52 223.8 1399.19 225.6 1395.59 229.2C1392.12 232.667 1390.39 236.733 1390.39 241.4H1360.59C1360.59 233.8 1362.59 226.8 1366.59 220.4C1370.59 213.867 1376.39 208.667 1383.99 204.8C1391.59 200.8 1400.79 198.8 1411.59 198.8ZM1434.19 243.6L1438.39 262.6C1422.65 261.933 1411.32 263.467 1404.39 267.2C1397.59 270.8 1394.19 275.267 1394.19 280.6C1394.19 284.2 1395.52 286.867 1398.19 288.6C1400.99 290.333 1404.19 291.2 1407.79 291.2C1411.25 291.2 1414.79 290.667 1418.39 289.6C1422.12 288.533 1425.19 286.467 1427.59 283.4C1430.12 280.333 1431.39 275.8 1431.39 269.8L1436.79 278.6C1436.79 286.067 1435.39 292.733 1432.59 298.6C1429.79 304.333 1425.79 308.867 1420.59 312.2C1415.52 315.533 1409.39 317.2 1402.19 317.2C1394.85 317.2 1388.32 315.867 1382.59 313.2C1376.99 310.4 1372.52 306.4 1369.19 301.2C1365.99 296 1364.39 289.667 1364.39 282.2C1364.39 275 1365.79 269.067 1368.59 264.4C1371.52 259.733 1375.39 256.067 1380.19 253.4C1385.12 250.6 1390.59 248.533 1396.59 247.2C1402.72 245.867 1408.99 245 1415.39 244.6C1421.92 244.067 1428.19 243.733 1434.19 243.6ZM1478.02 202H1506.62V219.2C1508.09 215.6 1510.22 212.267 1513.02 209.2C1515.95 206.133 1519.75 203.667 1524.42 201.8C1529.22 199.8 1535.09 198.8 1542.02 198.8C1549.22 198.8 1555.62 200.267 1561.22 203.2C1566.82 206.133 1571.22 211 1574.42 217.8C1577.62 224.467 1579.22 233.533 1579.22 245V314H1550.62V247.6C1550.62 243.2 1550.29 239.2 1549.62 235.6C1548.95 231.867 1547.42 228.933 1545.02 226.8C1542.75 224.667 1539.09 223.6 1534.02 223.6C1530.02 223.6 1525.89 224.733 1521.62 227C1517.35 229.267 1513.75 233 1510.82 238.2C1508.02 243.267 1506.62 250.267 1506.62 259.2V314H1478.02V202ZM1591.18 202H1650.18V226.4H1591.18V202ZM1603.98 174H1632.58V279.6C1632.58 282.933 1633.45 285.467 1635.18 287.2C1637.05 288.8 1639.78 289.6 1643.38 289.6H1653.38V314H1643.18C1630.12 314 1620.32 311.133 1613.78 305.4C1607.25 299.667 1603.98 291.067 1603.98 279.6V174Z" fill="#7BA058"/>
<defs>
<linearGradient id="paint0_linear_1_12" x1="235.75" y1="179" x2="235.75" y2="319.5" gradientUnits="userSpaceOnUse">
<stop stop-color="#7BA058"/>
<stop offset="1" stop-color="white"/>
</linearGradient>
</defs>
</svg>
